<?xml version="1.0" encoding="UTF-8" standalone="no"?>
<!DOCTYPE svg PUBLIC "-//W3C//DTD SVG 1.1//EN" "http://www.w3.org/Graphics/SVG/1.1/DTD/svg11.dtd">
<svg width="100%" height="100%" viewBox="0 0 48 48" version="1.1" xmlns="http://www.w3.org/2000/svg" xmlns:xlink="http://www.w3.org/1999/xlink" xml:space="preserve" xmlns:serif="http://www.serif.com/" style="fill-rule:evenodd;clip-rule:evenodd;stroke-linejoin:round;stroke-miterlimit:2;">
    <g transform="matrix(0.0728113,0,0,0.0728113,-1.48415,3.63324)">
        <path d="M504,14.559C455.84,14.559 424.48,5.602 374.64,5.602C212.8,5.602 137.76,97.442 137.76,190.962C137.76,245.841 164.08,264.321 215.041,264.321C211.682,256.481 204.963,247.52 204.963,208.321C204.963,99.121 246.404,67.201 299.041,64.961C299.041,64.961 255.92,490.001 129.921,540.961L129.921,554.402L220.081,554.402L299.601,554.398L357.281,279.998L463.121,279.998L486.641,211.119L371.841,211.119L399.841,78.959C431.763,85.678 462.56,91.838 489.443,91.838C522.482,91.838 553.283,81.76 570.084,5.037C549.924,12.318 528.08,14.557 504.002,14.557L504,14.559Z" style="fill-rule:nonzero;"/>
    </g>
</svg>
