<svg clip-rule="evenodd" fill-rule="evenodd" stroke-linejoin="round" stroke-miterlimit="2" viewBox="0 0 24 24" xmlns="http://www.w3.org/2000/svg"><path d="m20.5 7.583v8.334l.216-.221c.147-.149.341-.223.534-.223.528 0 .75.459.75.75 0 .19-.071.38-.216.526l-1.496 1.528c-.14.142-.332.223-.531.223-.2 0-.392-.079-.533-.22l-1.528-1.527c-.146-.147-.219-.339-.219-.531 0-.495.435-.782.82-.746.168.015.331.087.46.216l.243.243v-8.37l-.243.243c-.129.129-.292.201-.46.216-.385.036-.82-.251-.82-.746 0-.192.073-.384.219-.531l1.528-1.527c.141-.141.333-.22.533-.22.199 0 .391.081.531.223l1.496 1.528c.145.146.216.336.216.526 0 .291-.222.75-.75.75-.193 0-.387-.074-.534-.223zm-4.5 10.167c0-.414-.336-.75-.75-.75h-12.5c-.414 0-.75.336-.75.75s.336.75.75.75h12.5c.414 0 .75-.336.75-.75zm0-4c0-.414-.336-.75-.75-.75h-12.5c-.414 0-.75.336-.75.75s.336.75.75.75h12.5c.414 0 .75-.336.75-.75zm0-4c0-.414-.336-.75-.75-.75h-12.5c-.414 0-.75.336-.75.75s.336.75.75.75h12.5c.414 0 .75-.336.75-.75zm0-4c0-.414-.336-.75-.75-.75h-12.5c-.414 0-.75.336-.75.75s.336.75.75.75h12.5c.414 0 .75-.336.75-.75z"/></svg>